{
  "accessors": [
    {
      "bufferView": 2,
      "componentType": 5126,
      "count": 4666,
      "max": [
        0.05141998827457428,
        0.15017960965633392,
        0.03407652676105499
      ],
      "min": [
        -0.14084014296531677,
        -0.0011385208927094936,
        -0.034833114594221115
      ],
      "type": "VEC3"
    },
    {
      "bufferView": 2,
      "byteOffset": 55992,
      "componentType": 5126,
      "count": 4666,
      "max": [
        0.9995691776275635,
        0.9998482465744019,
        0.9999794363975525
      ],
      "min": [
        -0.9999955892562866,
        -0.9999454617500305,
        -0.9999363422393799
      ],
      "type": "VEC3"
    },
    {
      "bufferView": 3,
      "componentType": 5126,
      "count": 4666,
      "max": [
        0.9997484683990479,
        0.9984192848205566,
        0.9999999403953552,
        1.0
      ],
      "min": [
        -0.9988857507705688,
        -0.9999980926513672,
        -0.9999333024024963,
        -1.0
      ],
      "type": "VEC4"
    },
    {
      "bufferView": 3,
      "byteOffset": 74656,
      "componentType": 5126,
      "count": 4666,
      "max": [
        1.0,
        1.0,
        1.0,
        1.0
      ],
      "min": [
        0.0,
        0.0,
        0.0,
        1.0
      ],
      "type": "VEC4"
    },
    {
      "bufferView": 1,
      "componentType": 5126,
      "count": 4666,
      "max": [
        0.923675537109375,
        0.9416559934616089
      ],
      "min": [
        0.000937044620513916,
        0.000937044620513916
      ],
      "type": "VEC2"
    },
    {
      "bufferView": 1,
      "byteOffset": 37328,
      "componentType": 5126,
      "count": 4666,
      "max": [
        0.923675537109375,
        0.9416559934616089
      ],
      "min": [
        0.000937044620513916,
        0.000937044620513916
      ],
      "type": "VEC2"
    },
    {
      "bufferView": 1,
      "byteOffset": 74656,
      "componentType": 5126,
      "count": 4666,
      "max": [
        0.923675537109375,
        0.9416559934616089
      ],
      "min": [
        0.000937044620513916,
        0.000937044620513916
      ],
      "type": "VEC2"
    },
    {
      "bufferView": 1,
      "byteOffset": 111984,
      "componentType": 5126,
      "count": 4666,
      "max": [
        0.923675537109375,
        0.9416559934616089
      ],
      "min": [
        0.000937044620513916,
        0.000937044620513916
      ],
      "type": "VEC2"
    },
    {
      "bufferView": 0,
      "componentType": 5125,
      "count": 23721,
      "type": "SCALAR"
    }
  ],
  "asset": {
    "extras": {
      "author": "Nyilonelycompany (https://sketchfab.com/Nyilonelycompany)",
      "license": "SKETCHFAB Standard (https://sketchfab.com/licenses)",
      "source": "https://sketchfab.com/3d-models/gascogne-pigeon-bird-lowpoly-free-10d7975688f740fa9ba34c874da2b9d2",
      "title": "Gascogne Pigeon Bird (Lowpoly) Free"
    },
    "generator": "Sketchfab-16.7.0",
    "version": "2.0"
  },
  "bufferViews": [
    {
      "buffer": 0,
      "byteLength": 94884,
      "name": "floatBufferViews",
      "target": 34963
    },
    {
      "buffer": 0,
      "byteLength": 149312,
      "byteOffset": 94884,
      "byteStride": 8,
      "name": "floatBufferViews",
      "target": 34962
    },
    {
      "buffer": 0,
      "byteLength": 111984,
      "byteOffset": 244196,
      "byteStride": 12,
      "name": "floatBufferViews",
      "target": 34962
    },
    {
      "buffer": 0,
      "byteLength": 149312,
      "byteOffset": 356180,
      "byteStride": 16,
      "name": "floatBufferViews",
      "target": 34962
    }
  ],
  "buffers": [
    {
      "byteLength": 505492,
      "uri": "scene.bin"
    }
  ],
  "extensionsUsed": [
    "KHR_materials_specular"
  ],
  "images": [
    {
      "uri": "textures/Gascogne_Pigeon_mat_baseColor.png"
    },
    {
      "uri": "textures/Gascogne_Pigeon_mat_metallicRoughness.png"
    },
    {
      "uri": "textures/Gascogne_Pigeon_mat_emissive.png"
    },
    {
      "uri": "textures/Gascogne_Pigeon_mat_normal.png"
    },
    {
      "uri": "textures/Gascogne_Pigeon_mat_specularf0.png"
    }
  ],
  "materials": [
    {
      "alphaMode": "BLEND",
      "doubleSided": true,
      "emissiveFactor": [
        0.4,
        0.4,
        0.4
      ],
      "emissiveTexture": {
        "index": 2
      },
      "extensions": {
        "KHR_materials_specular": {
          "specularColorFactor": [
            1.0,
            1.0,
            1.0
          ],
          "specularFactor": 1.0,
          "specularTexture": {
            "index": 4
          }
        }
      },
      "name": "Gascogne_Pigeon_mat",
      "normalTexture": {
        "index": 3,
        "scale": 0.28461842007133065
      },
      "occlusionTexture": {
        "index": 1,
        "strength": 0.32733025552093375
      },
      "pbrMetallicRoughness": {
        "baseColorTexture": {
          "index": 0
        },
        "metallicRoughnessTexture": {
          "index": 1
        }
      }
    }
  ],
  "meshes": [
    {
      "name": "Object_0",
      "primitives": [
        {
          "attributes": {
            "COLOR_0": 3,
            "NORMAL": 1,
            "POSITION": 0,
            "TANGENT": 2,
            "TEXCOORD_0": 4,
            "TEXCOORD_1": 5,
            "TEXCOORD_2": 6,
            "TEXCOORD_3": 7
          },
          "indices": 8,
          "material": 0,
          "mode": 4
        }
      ]
    }
  ],
  "nodes": [
    {
      "children": [
        1
      ],
      "matrix": [
        -0.13150613629981223,
        4.904869064215932e-17,
        -0.22089566489903945,
        0.0,
        -0.22089566489903945,
        -2.9200228079909124e-17,
        0.13150613629981223,
        0.0,
        0.0,
        0.25707733631134033,
        5.708263557643097e-17,
        0.0,
        0.0,
        0.0,
        0.0,
        1.0
      ],
      "name": "Sketchfab_model"
    },
    {
      "children": [
        2
      ],
      "name": "root"
    },
    {
      "children": [
        3
      ],
      "matrix": [
        1.0,
        0.0,
        0.0,
        0.0,
        0.0,
        2.220446049250313e-16,
        1.0,
        0.0,
        0.0,
        -1.0,
        2.220446049250313e-16,
        0.0,
        0.0,
        0.0,
        0.0,
        1.0
      ],
      "name": "GLTF_SceneRootNode"
    },
    {
      "children": [
        4
      ],
      "matrix": [
        -0.060544062071723054,
        -0.6787040720683725,
        7.731508761076366,
        0.0,
        0.09124302979980971,
        7.7311464890288875,
        0.6793867781622418,
        0.0,
        -7.76070687819782,
        0.09619037066104577,
        -0.05232871554507791,
        0.0,
        0.0,
        0.0,
        0.0,
        1.0
      ],
      "name": "Body_2"
    },
    {
      "mesh": 0,
      "name": "Object_4"
    }
  ],
  "samplers": [
    {
      "magFilter": 9729,
      "minFilter": 9987,
      "wrapS": 10497,
      "wrapT": 10497
    }
  ],
  "scene": 0,
  "scenes": [
    {
      "name": "Sketchfab_Scene",
      "nodes": [
        0
      ]
    }
  ],
  "textures": [
    {
      "sampler": 0,
      "source": 0
    },
    {
      "sampler": 0,
      "source": 1
    },
    {
      "sampler": 0,
      "source": 2
    },
    {
      "sampler": 0,
      "source": 3
    },
    {
      "sampler": 0,
      "source": 4
    }
  ]
}
